<svg width="65" height="65" viewBox="0 0 65 65" fill="none" xmlns="http://www.w3.org/2000/svg">
<path d="M29.0324 10.7512C29.8257 9.95794 31.1118 9.95794 31.9051 10.7512C32.6373 11.4834 32.6936 12.6356 32.074 13.4325L31.9051 13.6238L13.0305 32.5L31.9051 51.3762C32.6373 52.1084 32.6936 53.2606 32.074 54.0575L31.9051 54.2488C31.1728 54.981 30.0206 55.0374 29.2238 54.4178L29.0324 54.2488L8.71994 33.9363C7.98771 33.2041 7.93138 32.0519 8.55096 31.255L8.71994 31.0637L29.0324 10.7512Z" fill="url(#paint0_linear_28_496)"/>
<path d="M14.2188 34.5312C13.0969 34.5312 12.1875 33.6218 12.1875 32.5C12.1875 31.4583 12.9716 30.5998 13.9819 30.4824L14.2188 30.4688L54.8438 30.4688C55.9656 30.4688 56.875 31.3782 56.875 32.5C56.875 33.5417 56.0909 34.4002 55.0806 34.5176L54.8438 34.5312H14.2188Z" fill="url(#paint1_linear_28_496)"/>
<defs>
<linearGradient id="paint0_linear_28_496" x1="8.125" y1="10.1562" x2="8.125" y2="54.8438" gradientUnits="userSpaceOnUse">
<stop offset="0.00169362" stop-color="#A300FF"/>
<stop offset="1" stop-color="#2C00FF"/>
</linearGradient>
<linearGradient id="paint1_linear_28_496" x1="12.1875" y1="30.4688" x2="12.1875" y2="34.5312" gradientUnits="userSpaceOnUse">
<stop offset="0.00169362" stop-color="#A300FF"/>
<stop offset="1" stop-color="#2C00FF"/>
</linearGradient>
</defs>
</svg>
