<svg width="48" height="48" viewBox="0 0 48 48" fill="none" xmlns="http://www.w3.org/2000/svg">
<path fill-rule="evenodd" clip-rule="evenodd" d="M19.7197 40.6448C18.8824 39.8006 18.4403 38.7447 18.435 37.7922C18.1868 36.8799 18.3975 35.3948 18.7373 33.8772L18.7892 33.6494L18.8428 33.4215C18.8519 33.3836 18.861 33.3456 18.8701 33.3077L18.9258 33.0805L18.9825 32.8542L19.0401 32.6292L19.1274 32.2951L19.2444 31.8582L19.3315 31.5386L19.6566 30.3589L19.7279 30.0955L19.7935 29.8474L19.8337 29.6912C19.8402 29.6658 19.8465 29.6407 19.8527 29.616L19.8881 29.4717C19.8993 29.4249 19.9099 29.3796 19.92 29.3358L19.9481 29.2087C20.0005 28.9638 20.0288 28.7743 20.0242 28.6548C18.7108 28.9883 17.6142 29.1941 16.6941 29.3149L16.4848 29.3412L16.2818 29.3647C16.015 29.3941 15.7644 29.4161 15.5288 29.4319L15.3548 29.4426C15.3263 29.4442 15.298 29.4457 15.2699 29.4471L15.1041 29.4545C15.0769 29.4556 15.05 29.4566 15.0232 29.4575L14.8654 29.4619C14.8136 29.463 14.7627 29.4639 14.7127 29.4645L14.5651 29.4653L14.4224 29.4645C14.3756 29.464 14.3297 29.4632 14.2845 29.4622L14.1513 29.4585C14.1295 29.4577 14.1079 29.457 14.0865 29.4561L13.9602 29.4506C13.9395 29.4495 13.9191 29.4485 13.8987 29.4474L13.7791 29.4402L13.6637 29.4321L13.5524 29.4231L13.3931 29.4085L13.2918 29.3981L13.1469 29.3817L12.9662 29.3591L12.7991 29.3365L12.4681 29.2906L12.3703 29.2782L12.2781 29.2678L12.2195 29.2623L12.1911 29.26C9.98635 29.0912 8.18427 27.3166 8.18427 25.0854C8.18427 24.4988 8.30824 23.9415 8.53118 23.4386C7.97989 22.7466 7.65003 21.8675 7.65003 20.9107C7.65003 19.8295 8.0713 18.8475 8.75738 18.1224C8.5598 17.6091 8.4514 17.0507 8.4514 16.4668C8.4514 15.0467 9.0926 13.7776 10.099 12.9378C10.0842 12.8324 10.0768 12.7257 10.0711 12.6181L10.0606 12.4014C10.0587 12.3651 10.0566 12.3287 10.0541 12.2922C9.4677 3.73846 28.8899 7.4485 31.9909 8.71776C32.1527 8.78399 32.3071 8.94179 32.4521 9.17612C32.8526 8.92197 33.3123 8.75057 33.8089 8.68709L39.0383 8.01874C39.8058 7.92069 40.5172 8.43954 40.665 9.20518C41.0934 11.4229 41.3076 13.758 41.3076 16.2105C41.3076 18.74 41.0798 21.2694 40.6241 23.7989C40.4915 24.5342 39.8363 25.0548 39.0962 25.0129L33.4108 24.6899C33.0972 24.6721 32.7987 24.6002 32.5241 24.4836C32.1788 25.2728 31.7606 25.997 31.2915 26.5296L30.5465 27.3759L30.3962 27.5477L30.1801 27.7967L30.0419 27.9575L29.908 28.1147L29.7781 28.2689L29.6522 28.4205L29.5298 28.5701C29.5096 28.5949 29.4897 28.6196 29.4698 28.6443L29.3523 28.7917C29.3329 28.8162 29.3137 28.8407 29.2946 28.8651L29.1814 29.0115C28.4725 29.9381 27.9165 30.8615 27.2175 32.3534L27.1058 32.5938C27.0306 32.7573 26.9536 32.9275 26.8745 33.1049L26.7542 33.3767L26.6305 33.6598L26.5031 33.955L26.3718 34.2626L26.2363 34.5831L26.0964 34.9171L25.9517 35.265L25.8021 35.6274L25.5678 36.1992L25.4047 36.5999L25.1488 37.2315L24.9705 37.6736C24.9429 37.7423 24.9357 37.8361 24.9402 37.9502L24.9432 38.0043L24.9476 38.0612L24.9565 38.1515L24.9763 38.3145L25.0089 38.5661L25.0275 38.7206L25.0402 38.841L25.0477 38.9232C25.0489 38.937 25.0501 38.9509 25.0511 38.9649L25.0572 39.0492C25.0581 39.0633 25.0589 39.0775 25.0597 39.0918L25.0638 39.178C25.0877 39.7999 24.9936 40.5082 24.4691 41.1309C23.3713 42.4342 21.1541 42.091 19.7197 40.6448Z" stroke="white" stroke-width="1.44086"/>
<path d="M32.5275 8.28467L32.5033 24.602" stroke="white" stroke-width="1.44086" stroke-linejoin="round"/>
</svg>
