<svg width="48" height="48" viewBox="0 0 48 48" fill="none" xmlns="http://www.w3.org/2000/svg">
<path fill-rule="evenodd" clip-rule="evenodd" d="M19.7199 40.6451C18.8826 39.8009 18.4404 38.7449 18.4352 37.7924C18.187 36.8802 18.3977 35.395 18.7375 33.8775L18.7894 33.6497L18.843 33.4218C18.852 33.3838 18.8612 33.3459 18.8703 33.3079L18.926 33.0807L18.9827 32.8544L19.0402 32.6294L19.1276 32.2954L19.2446 31.8584L19.3317 31.5389L19.6568 30.3592L19.7281 30.0957L19.7937 29.8476L19.8339 29.6914C19.8404 29.666 19.8467 29.641 19.8528 29.6162L19.8882 29.4719C19.8995 29.4252 19.9101 29.3799 19.9201 29.336L19.9483 29.209C20.0006 28.964 20.029 28.7745 20.0244 28.6551C18.711 28.9885 17.6144 29.1944 16.6942 29.3151L16.485 29.3415L16.2819 29.365C16.0152 29.3944 15.7646 29.4163 15.529 29.4321L15.355 29.4428C15.3264 29.4444 15.2981 29.4459 15.2701 29.4473L15.1043 29.4548C15.0771 29.4558 15.0501 29.4568 15.0234 29.4577L14.8656 29.4621C14.8138 29.4633 14.7629 29.4641 14.7129 29.4647L14.5653 29.4655L14.4226 29.4647C14.3758 29.4642 14.3299 29.4634 14.2847 29.4624L14.1515 29.4587C14.1297 29.458 14.1081 29.4572 14.0867 29.4564L13.9604 29.4508C13.9397 29.4498 13.9192 29.4487 13.8989 29.4476L13.7793 29.4404L13.6639 29.4323L13.5526 29.4234L13.3933 29.4087L13.292 29.3983L13.1471 29.3819L12.9664 29.3593L12.7993 29.3368L12.4683 29.2908L12.3704 29.2784L12.2783 29.2681L12.2197 29.2625L12.1913 29.2602C9.98653 29.0915 8.18446 27.3168 8.18446 25.0856C8.18446 24.4991 8.30842 23.9418 8.53137 23.4388C7.98007 22.7468 7.65021 21.8677 7.65021 20.911C7.65021 19.8297 8.07148 18.8477 8.75756 18.1227C8.55999 17.6093 8.45158 17.0509 8.45158 16.467C8.45158 15.0469 9.09278 13.7779 10.0992 12.938C10.0844 12.8326 10.0769 12.726 10.0713 12.6183L10.0608 12.4016C10.0589 12.3653 10.0568 12.3289 10.0543 12.2924C9.46789 3.7387 28.8901 7.44874 31.9911 8.718C32.1529 8.78423 32.3073 8.94204 32.4523 9.17636C32.8528 8.92222 33.3124 8.75082 33.8091 8.68734L39.0385 8.01898C39.806 7.92093 40.5174 8.43978 40.6652 9.20543C41.0936 11.4231 41.3078 13.7583 41.3078 16.2108C41.3078 18.7402 41.08 21.2697 40.6243 23.7991C40.4916 24.5345 39.8365 25.055 39.0963 25.0131L33.411 24.6901C33.0973 24.6723 32.7989 24.6005 32.5243 24.4838C32.179 25.2731 31.7608 25.9972 31.2917 26.5298L30.5467 27.3761L30.3964 27.548L30.1803 27.7969L30.0421 27.9577L29.9081 28.115L29.7783 28.2692L29.6523 28.4208L29.5299 28.5704C29.5098 28.5952 29.4898 28.6199 29.47 28.6445L29.3525 28.792C29.3331 28.8165 29.3139 28.8409 29.2948 28.8654L29.1816 29.0118C28.4727 29.9384 27.9167 30.8617 27.2176 32.3537L27.106 32.5941C27.0308 32.7576 26.9538 32.9277 26.8746 33.1052L26.7544 33.3769L26.6307 33.6601L26.5033 33.9552L26.372 34.2628L26.2365 34.5833L26.0965 34.9173L25.9519 35.2653L25.8023 35.6276L25.568 36.1994L25.4048 36.6001L25.149 37.2317L24.9707 37.6739C24.9431 37.7426 24.9358 37.8363 24.9404 37.9505L24.9433 38.0046L24.9477 38.0614L24.9567 38.1518L24.9765 38.3147L25.0091 38.5664L25.0277 38.7209L25.0404 38.8413L25.0479 38.9235C25.0491 38.9373 25.0502 38.9512 25.0513 38.9651L25.0573 39.0494C25.0582 39.0636 25.0591 39.0778 25.0599 39.0921L25.064 39.1782C25.0879 39.8001 24.9938 40.5084 24.4693 41.1311C23.3715 42.4344 21.1543 42.0913 19.7199 40.6451Z" stroke="white" stroke-width="1.44086"/>
<path d="M32.5276 8.28467L32.5033 24.602" stroke="white" stroke-width="1.44086" stroke-linejoin="round"/>
</svg>
