<svg width="48" height="48" viewBox="0 0 48 48" fill="none" xmlns="http://www.w3.org/2000/svg">
<path fill-rule="evenodd" clip-rule="evenodd" d="M27.8931 7.35493C28.7304 8.19912 29.1725 9.25506 29.1777 10.2076C29.426 11.1198 29.2152 12.605 28.8755 14.1225L28.8236 14.3503L28.77 14.5782C28.7609 14.6162 28.7518 14.6541 28.7426 14.6921L28.687 14.9193L28.6303 15.1456L28.5727 15.3706L28.4854 15.7046L28.3684 16.1416L28.2813 16.4611L27.9562 17.6408L27.8849 17.9043L27.8193 18.1524L27.7791 18.3086C27.7726 18.334 27.7663 18.359 27.7601 18.3838L27.7247 18.5281C27.7135 18.5748 27.7029 18.6201 27.6928 18.664L27.6647 18.791C27.6123 19.036 27.584 19.2255 27.5886 19.3449C28.902 19.0115 29.9986 18.8056 30.9187 18.6849L31.128 18.6585L31.331 18.635C31.5977 18.6056 31.8484 18.5837 32.084 18.5679L32.258 18.5572C32.2865 18.5556 32.3148 18.5541 32.3429 18.5527L32.5087 18.5452C32.5359 18.5442 32.5628 18.5432 32.5896 18.5423L32.7474 18.5379C32.7992 18.5367 32.85 18.5359 32.9001 18.5353L33.0477 18.5345L33.1904 18.5353C33.2372 18.5358 33.2831 18.5366 33.3283 18.5376L33.4614 18.5413C33.4832 18.542 33.5049 18.5428 33.5263 18.5436L33.6526 18.5492C33.6732 18.5502 33.6937 18.5513 33.714 18.5524L33.8337 18.5596L33.9491 18.5677L34.0604 18.5766L34.2196 18.5913L34.321 18.6017L34.4659 18.6181L34.6466 18.6407L34.8137 18.6632L35.1447 18.7092L35.2425 18.7216L35.3347 18.7319L35.3932 18.7375L35.4217 18.7398C37.6264 18.9085 39.4285 20.6832 39.4285 22.9144C39.4285 23.5009 39.3046 24.0582 39.0816 24.5612C39.6329 25.2532 39.9628 26.1323 39.9628 27.089C39.9628 28.1703 39.5415 29.1523 38.8554 29.8773C39.053 30.3907 39.1614 30.9491 39.1614 31.533C39.1614 32.9531 38.5202 34.2221 37.5138 35.062C37.5286 35.1674 37.536 35.274 37.5417 35.3817L37.5522 35.5984C37.5541 35.6347 37.5562 35.6711 37.5587 35.7076C38.1451 44.2613 18.7229 40.5513 15.6219 39.282C15.4601 39.2158 15.3057 39.058 15.1607 38.8236C14.7602 39.0778 14.3005 39.2492 13.8039 39.3127L8.57451 39.981C7.80701 40.0791 7.09561 39.5602 6.94776 38.7946C6.51937 36.5769 6.30518 34.2417 6.30518 31.7892C6.30518 29.2598 6.53302 26.7303 6.9887 24.2009C7.12134 23.4655 7.77651 22.945 8.51663 22.9869L14.202 23.3099C14.5156 23.3277 14.8141 23.3995 15.0887 23.5162C15.4339 22.7269 15.8522 22.0028 16.3213 21.4702L17.0663 20.6239L17.2165 20.452L17.4327 20.2031L17.5709 20.0423L17.7048 19.885L17.8346 19.7308L17.9606 19.5792L18.083 19.4296C18.1032 19.4048 18.1231 19.3801 18.143 19.3555L18.2605 19.208C18.2798 19.1835 18.2991 19.1591 18.3182 19.1346L18.4314 18.9882C19.1402 18.0616 19.6963 17.1383 20.3953 15.6463L20.5069 15.4059C20.5822 15.2424 20.6592 15.0723 20.7383 14.8948L20.8586 14.6231L20.9823 14.3399L21.1097 14.0448L21.241 13.7372L21.3765 13.4167L21.5164 13.0827L21.6611 12.7347L21.8107 12.3724L22.045 11.8006L22.2081 11.3999L22.4639 10.7683L22.6423 10.3261C22.6699 10.2574 22.6771 10.1637 22.6726 10.0495L22.6696 9.99544L22.6652 9.93856L22.6563 9.84824L22.6365 9.68525L22.6038 9.43365L22.5853 9.27912L22.5726 9.15874L22.5651 9.07654C22.5639 9.06272 22.5627 9.04884 22.5616 9.0349L22.5556 8.95058C22.5547 8.93642 22.5539 8.92221 22.5531 8.90794L22.549 8.82175C22.5251 8.1999 22.6192 7.49157 23.1437 6.86888C24.2415 5.56557 26.4587 5.90871 27.8931 7.35493Z" stroke="white" stroke-width="1.44086"/>
<path d="M15.0855 39.7153L15.1098 23.398" stroke="white" stroke-width="1.44086" stroke-linejoin="round"/>
</svg>
