<svg width="48" height="48" viewBox="0 0 48 48" fill="none" xmlns="http://www.w3.org/2000/svg">
<path fill-rule="evenodd" clip-rule="evenodd" d="M27.8931 7.35518C28.7304 8.19937 29.1725 9.25531 29.1777 10.2078C29.426 11.1201 29.2152 12.6052 28.8755 14.1228L28.8236 14.3506L28.77 14.5785C28.7609 14.6164 28.7518 14.6544 28.7426 14.6923L28.687 14.9195L28.6303 15.1458L28.5727 15.3708L28.4854 15.7049L28.3684 16.1418L28.2813 16.4614L27.9562 17.6411L27.8849 17.9045L27.8193 18.1526L27.7791 18.3088C27.7726 18.3342 27.7663 18.3593 27.7601 18.384L27.7247 18.5283C27.7135 18.5751 27.7029 18.6204 27.6928 18.6642L27.6647 18.7913C27.6123 19.0362 27.584 19.2257 27.5886 19.3452C28.902 19.0117 29.9986 18.8059 30.9187 18.6851L31.128 18.6588L31.331 18.6353C31.5977 18.6059 31.8484 18.5839 32.084 18.5681L32.258 18.5574C32.2865 18.5558 32.3148 18.5543 32.3429 18.5529L32.5087 18.5455C32.5359 18.5444 32.5628 18.5434 32.5896 18.5425L32.7474 18.5381C32.7992 18.537 32.85 18.5361 32.9001 18.5355L33.0477 18.5347L33.1904 18.5355C33.2372 18.536 33.2831 18.5368 33.3283 18.5378L33.4614 18.5415C33.4832 18.5423 33.5049 18.543 33.5263 18.5439L33.6526 18.5494C33.6732 18.5505 33.6937 18.5515 33.714 18.5526L33.8337 18.5598L33.9491 18.5679L34.0604 18.5769L34.2196 18.5915L34.321 18.6019L34.4659 18.6183L34.6466 18.6409L34.8137 18.6635L35.1447 18.7094L35.2425 18.7218L35.3347 18.7322L35.3932 18.7377L35.4217 18.74C37.6264 18.9088 39.4285 20.6834 39.4285 22.9146C39.4285 23.5012 39.3046 24.0585 39.0816 24.5614C39.6329 25.2534 39.9628 26.1325 39.9628 27.0893C39.9628 28.1705 39.5415 29.1525 38.8554 29.8776C39.053 30.3909 39.1614 30.9493 39.1614 31.5332C39.1614 32.9533 38.5202 34.2224 37.5138 35.0622C37.5286 35.1676 37.536 35.2743 37.5417 35.3819L37.5522 35.5986C37.5541 35.6349 37.5562 35.6713 37.5587 35.7078C38.1451 44.2615 18.7229 40.5515 15.6219 39.2822C15.4601 39.216 15.3057 39.0582 15.1607 38.8239C14.7602 39.078 14.3005 39.2494 13.8039 39.3129L8.57451 39.9813C7.80701 40.0793 7.09561 39.5605 6.94776 38.7948C6.51937 36.5771 6.30518 34.242 6.30518 31.7895C6.30518 29.26 6.53302 26.7306 6.9887 24.2011C7.12134 23.4658 7.77651 22.9452 8.51663 22.9871L14.202 23.3101C14.5156 23.3279 14.8141 23.3998 15.0887 23.5164C15.4339 22.7272 15.8522 22.003 16.3213 21.4704L17.0663 20.6241L17.2165 20.4523L17.4327 20.2033L17.5709 20.0425L17.7048 19.8853L17.8346 19.7311L17.9606 19.5795L18.083 19.4299C18.1032 19.4051 18.1231 19.3804 18.143 19.3557L18.2605 19.2083C18.2798 19.1838 18.2991 19.1593 18.3182 19.1349L18.4314 18.9885C19.1402 18.0619 19.6963 17.1385 20.3953 15.6466L20.5069 15.4062C20.5822 15.2427 20.6592 15.0725 20.7383 14.8951L20.8586 14.6233L20.9823 14.3402L21.1097 14.045L21.241 13.7374L21.3765 13.4169L21.5164 13.0829L21.6611 12.735L21.8107 12.3726L22.045 11.8008L22.2081 11.4001L22.4639 10.7685L22.6423 10.3264C22.6699 10.2577 22.6771 10.1639 22.6726 10.0498L22.6696 9.99568L22.6652 9.9388L22.6563 9.84848L22.6365 9.6855L22.6038 9.43389L22.5853 9.27937L22.5726 9.15899L22.5651 9.07679C22.5639 9.06296 22.5627 9.04908 22.5616 9.03514L22.5556 8.95083C22.5547 8.93667 22.5539 8.92245 22.5531 8.90819L22.549 8.822C22.5251 8.20015 22.6192 7.49182 23.1437 6.86913C24.2415 5.56582 26.4587 5.90895 27.8931 7.35518Z" stroke="white" stroke-width="1.44086"/>
<path d="M15.0855 39.7153L15.1098 23.398" stroke="white" stroke-width="1.44086" stroke-linejoin="round"/>
</svg>
