<svg width="48" height="48" viewBox="0 0 48 48" fill="none" xmlns="http://www.w3.org/2000/svg">
<path fill-rule="evenodd" clip-rule="evenodd" d="M27.893 7.35493C28.7303 8.19912 29.1725 9.25506 29.1777 10.2076C29.4259 11.1198 29.2152 12.605 28.8754 14.1225L28.8235 14.3503L28.7699 14.5782C28.7609 14.6162 28.7518 14.6541 28.7426 14.6921L28.6869 14.9193L28.6302 15.1456L28.5727 15.3706L28.4853 15.7046L28.3684 16.1416L28.2813 16.4611L27.9561 17.6408L27.8848 17.9043L27.8192 18.1524L27.779 18.3086C27.7726 18.334 27.7662 18.359 27.7601 18.3838L27.7247 18.5281C27.7134 18.5748 27.7028 18.6201 27.6928 18.664L27.6646 18.791C27.6123 19.036 27.5839 19.2255 27.5885 19.3449C28.902 19.0115 29.9985 18.8056 30.9187 18.6849L31.1279 18.6585L31.331 18.635C31.5977 18.6056 31.8483 18.5837 32.084 18.5679L32.2579 18.5572C32.2865 18.5556 32.3148 18.5541 32.3429 18.5527L32.5086 18.5452C32.5358 18.5442 32.5628 18.5432 32.5895 18.5423L32.7474 18.5379C32.7991 18.5367 32.85 18.5359 32.9 18.5353L33.0477 18.5345L33.1904 18.5353C33.2371 18.5358 33.2831 18.5366 33.3282 18.5376L33.4614 18.5413C33.4832 18.542 33.5048 18.5428 33.5262 18.5436L33.6525 18.5492C33.6732 18.5502 33.6937 18.5513 33.714 18.5524L33.8337 18.5596L33.9491 18.5677L34.0603 18.5766L34.2196 18.5913L34.3209 18.6017L34.4658 18.6181L34.6465 18.6407L34.8136 18.6632L35.1446 18.7092L35.2425 18.7216L35.3347 18.7319L35.3932 18.7375L35.4216 18.7398C37.6264 18.9085 39.4285 20.6832 39.4285 22.9144C39.4285 23.5009 39.3045 24.0582 39.0815 24.5612C39.6328 25.2532 39.9627 26.1323 39.9627 27.089C39.9627 28.1703 39.5414 29.1523 38.8554 29.8773C39.0529 30.3907 39.1613 30.9491 39.1613 31.533C39.1613 32.9531 38.5201 34.2221 37.5137 35.062C37.5285 35.1674 37.536 35.274 37.5416 35.3817L37.5521 35.5984C37.554 35.6347 37.5561 35.6711 37.5586 35.7076C38.145 44.2613 18.7228 40.5513 15.6218 39.282C15.46 39.2158 15.3056 39.058 15.1607 38.8236C14.7601 39.0778 14.3005 39.2492 13.8038 39.3127L8.57445 39.981C7.80695 40.0791 7.09555 39.5602 6.9477 38.7946C6.51931 36.5769 6.30511 34.2417 6.30511 31.7892C6.30511 29.2598 6.53296 26.7303 6.98864 24.2009C7.12128 23.4655 7.77645 22.945 8.51657 22.9869L14.202 23.3099C14.5156 23.3277 14.814 23.3995 15.0887 23.5162C15.4339 22.7269 15.8521 22.0028 16.3212 21.4702L17.0662 20.6239L17.2165 20.452L17.4326 20.2031L17.5709 20.0423L17.7048 19.885L17.8346 19.7308L17.9606 19.5792L18.083 19.4296C18.1031 19.4048 18.1231 19.3801 18.1429 19.3555L18.2605 19.208C18.2798 19.1835 18.299 19.1591 18.3181 19.1346L18.4313 18.9882C19.1402 18.0616 19.6962 17.1383 20.3953 15.6463L20.5069 15.4059C20.5821 15.2424 20.6592 15.0723 20.7383 14.8948L20.8586 14.6231L20.9823 14.3399L21.1096 14.0448L21.2409 13.7372L21.3764 13.4167L21.5164 13.0827L21.661 12.7347L21.8106 12.3724L22.0449 11.8006L22.2081 11.3999L22.4639 10.7683L22.6422 10.3261C22.6699 10.2574 22.6771 10.1637 22.6725 10.0495L22.6696 9.99544L22.6652 9.93856L22.6562 9.84824L22.6365 9.68525L22.6038 9.43365L22.5852 9.27912L22.5725 9.15874L22.565 9.07654C22.5638 9.06272 22.5627 9.04884 22.5616 9.0349L22.5556 8.95058C22.5547 8.93642 22.5538 8.92221 22.553 8.90794L22.5489 8.82175C22.525 8.1999 22.6191 7.49157 23.1436 6.86888C24.2414 5.56557 26.4586 5.90871 27.893 7.35493Z" stroke="white" stroke-width="1.44086"/>
<path d="M15.0854 39.7153L15.1096 23.398" stroke="white" stroke-width="1.44086" stroke-linejoin="round"/>
</svg>
