<svg width="54" height="54" viewBox="0 0 54 54" fill="none" xmlns="http://www.w3.org/2000/svg">
<path d="M43.875 38.8125C44.807 38.8125 45.5625 39.568 45.5625 40.5C45.5625 41.3654 44.9111 42.0787 44.0718 42.1761L43.875 42.1875H10.125C9.19302 42.1875 8.4375 41.432 8.4375 40.5C8.4375 39.6346 9.08894 38.9213 9.9282 38.8239L10.125 38.8125H43.875Z" fill="url(#paint0_linear_19_527)"/>
<path d="M43.875 25.3125C44.807 25.3125 45.5625 26.068 45.5625 27C45.5625 27.8654 44.9111 28.5787 44.0718 28.6761L43.875 28.6875H10.125C9.19302 28.6875 8.4375 27.932 8.4375 27C8.4375 26.1346 9.08894 25.4213 9.9282 25.3239L10.125 25.3125H43.875Z" fill="url(#paint1_linear_19_527)"/>
<path d="M43.875 11.8125C44.807 11.8125 45.5625 12.568 45.5625 13.5C45.5625 14.3654 44.9111 15.0787 44.0718 15.1761L43.875 15.1875H10.125C9.19302 15.1875 8.4375 14.432 8.4375 13.5C8.4375 12.6346 9.08894 11.9213 9.9282 11.8239L10.125 11.8125H43.875Z" fill="url(#paint2_linear_19_527)"/>
<defs>
<linearGradient id="paint0_linear_19_527" x1="8.4375" y1="38.8125" x2="8.4375" y2="42.1875" gradientUnits="userSpaceOnUse">
<stop offset="0.00169362" stop-color="#A300FF"/>
<stop offset="1" stop-color="#2C00FF"/>
</linearGradient>
<linearGradient id="paint1_linear_19_527" x1="8.4375" y1="25.3125" x2="8.4375" y2="28.6875" gradientUnits="userSpaceOnUse">
<stop offset="0.00169362" stop-color="#A300FF"/>
<stop offset="1" stop-color="#2C00FF"/>
</linearGradient>
<linearGradient id="paint2_linear_19_527" x1="8.4375" y1="11.8125" x2="8.4375" y2="15.1875" gradientUnits="userSpaceOnUse">
<stop offset="0.00169362" stop-color="#A300FF"/>
<stop offset="1" stop-color="#2C00FF"/>
</linearGradient>
</defs>
</svg>
