<svg width="48" height="48" viewBox="0 0 48 48" fill="none" xmlns="http://www.w3.org/2000/svg">
<path fill-rule="evenodd" clip-rule="evenodd" d="M19.7199 40.6448C18.8826 39.8006 18.4404 38.7447 18.4352 37.7922C18.187 36.8799 18.3977 35.3948 18.7375 33.8772L18.7894 33.6494L18.843 33.4215C18.852 33.3836 18.8612 33.3456 18.8703 33.3077L18.926 33.0805L18.9827 32.8542L19.0402 32.6292L19.1276 32.2951L19.2446 31.8582L19.3317 31.5386L19.6568 30.3589L19.7281 30.0955L19.7937 29.8474L19.8339 29.6912C19.8404 29.6658 19.8467 29.6407 19.8528 29.616L19.8882 29.4717C19.8995 29.4249 19.9101 29.3796 19.9201 29.3358L19.9483 29.2087C20.0006 28.9638 20.029 28.7743 20.0244 28.6548C18.711 28.9883 17.6144 29.1941 16.6942 29.3149L16.485 29.3412L16.2819 29.3647C16.0152 29.3941 15.7646 29.4161 15.529 29.4319L15.355 29.4426C15.3264 29.4442 15.2981 29.4457 15.2701 29.4471L15.1043 29.4545C15.0771 29.4556 15.0501 29.4566 15.0234 29.4575L14.8656 29.4619C14.8138 29.463 14.7629 29.4639 14.7129 29.4645L14.5653 29.4653L14.4226 29.4645C14.3758 29.464 14.3299 29.4632 14.2847 29.4622L14.1515 29.4585C14.1297 29.4577 14.1081 29.457 14.0867 29.4561L13.9604 29.4506C13.9397 29.4495 13.9192 29.4485 13.8989 29.4474L13.7793 29.4402L13.6639 29.4321L13.5526 29.4231L13.3933 29.4085L13.292 29.3981L13.1471 29.3817L12.9664 29.3591L12.7993 29.3365L12.4683 29.2906L12.3704 29.2782L12.2783 29.2678L12.2197 29.2623L12.1913 29.26C9.98653 29.0912 8.18446 27.3166 8.18446 25.0854C8.18446 24.4988 8.30842 23.9415 8.53137 23.4386C7.98007 22.7466 7.65021 21.8675 7.65021 20.9107C7.65021 19.8295 8.07148 18.8475 8.75756 18.1224C8.55999 17.6091 8.45158 17.0507 8.45158 16.4668C8.45158 15.0467 9.09278 13.7776 10.0992 12.9378C10.0844 12.8324 10.0769 12.7257 10.0713 12.6181L10.0608 12.4014C10.0589 12.3651 10.0568 12.3287 10.0543 12.2922C9.46789 3.73846 28.8901 7.4485 31.9911 8.71776C32.1529 8.78399 32.3073 8.94179 32.4523 9.17612C32.8528 8.92197 33.3124 8.75057 33.8091 8.68709L39.0385 8.01874C39.806 7.92069 40.5174 8.43954 40.6652 9.20518C41.0936 11.4229 41.3078 13.758 41.3078 16.2105C41.3078 18.74 41.08 21.2694 40.6243 23.7989C40.4916 24.5342 39.8365 25.0548 39.0963 25.0129L33.411 24.6899C33.0973 24.6721 32.7989 24.6002 32.5243 24.4836C32.179 25.2728 31.7608 25.997 31.2917 26.5296L30.5467 27.3759L30.3964 27.5477L30.1803 27.7967L30.0421 27.9575L29.9081 28.1147L29.7783 28.2689L29.6523 28.4205L29.5299 28.5701C29.5098 28.5949 29.4898 28.6196 29.47 28.6443L29.3525 28.7917C29.3331 28.8162 29.3139 28.8407 29.2948 28.8651L29.1816 29.0115C28.4727 29.9381 27.9167 30.8615 27.2176 32.3534L27.106 32.5938C27.0308 32.7573 26.9538 32.9275 26.8746 33.1049L26.7544 33.3767L26.6307 33.6598L26.5033 33.955L26.372 34.2626L26.2365 34.5831L26.0965 34.9171L25.9519 35.265L25.8023 35.6274L25.568 36.1992L25.4048 36.5999L25.149 37.2315L24.9707 37.6736C24.9431 37.7423 24.9358 37.8361 24.9404 37.9502L24.9433 38.0043L24.9477 38.0612L24.9567 38.1515L24.9765 38.3145L25.0091 38.5661L25.0277 38.7206L25.0404 38.841L25.0479 38.9232C25.0491 38.937 25.0502 38.9509 25.0513 38.9649L25.0573 39.0492C25.0582 39.0633 25.0591 39.0775 25.0599 39.0918L25.064 39.178C25.0879 39.7999 24.9938 40.5082 24.4693 41.1309C23.3715 42.4342 21.1543 42.091 19.7199 40.6448Z" stroke="white" stroke-width="1.44086"></path>
<path d="M32.5276 8.28467L32.5033 24.602" stroke="white" stroke-width="1.44086" stroke-linejoin="round"></path>
</svg>
