<svg width="48" height="48" viewBox="0 0 48 48" fill="none" xmlns="http://www.w3.org/2000/svg">
<path fill-rule="evenodd" clip-rule="evenodd" d="M27.893 7.35518C28.7303 8.19937 29.1725 9.25531 29.1777 10.2078C29.4259 11.1201 29.2152 12.6052 28.8754 14.1228L28.8235 14.3506L28.7699 14.5785C28.7609 14.6164 28.7518 14.6544 28.7426 14.6923L28.6869 14.9195L28.6302 15.1458L28.5727 15.3708L28.4853 15.7049L28.3684 16.1418L28.2813 16.4614L27.9561 17.6411L27.8848 17.9045L27.8192 18.1526L27.779 18.3088C27.7726 18.3342 27.7662 18.3593 27.7601 18.384L27.7247 18.5283C27.7134 18.5751 27.7028 18.6204 27.6928 18.6642L27.6646 18.7913C27.6123 19.0362 27.5839 19.2257 27.5885 19.3452C28.902 19.0117 29.9985 18.8059 30.9187 18.6851L31.1279 18.6588L31.331 18.6353C31.5977 18.6059 31.8483 18.5839 32.084 18.5681L32.2579 18.5574C32.2865 18.5558 32.3148 18.5543 32.3429 18.5529L32.5086 18.5455C32.5358 18.5444 32.5628 18.5434 32.5895 18.5425L32.7474 18.5381C32.7991 18.537 32.85 18.5361 32.9 18.5355L33.0477 18.5347L33.1904 18.5355C33.2371 18.536 33.2831 18.5368 33.3282 18.5378L33.4614 18.5415C33.4832 18.5423 33.5048 18.543 33.5262 18.5439L33.6525 18.5494C33.6732 18.5505 33.6937 18.5515 33.714 18.5526L33.8337 18.5598L33.9491 18.5679L34.0603 18.5769L34.2196 18.5915L34.3209 18.6019L34.4658 18.6183L34.6465 18.6409L34.8136 18.6635L35.1446 18.7094L35.2425 18.7218L35.3347 18.7322L35.3932 18.7377L35.4216 18.74C37.6264 18.9088 39.4285 20.6834 39.4285 22.9146C39.4285 23.5012 39.3045 24.0585 39.0815 24.5614C39.6328 25.2534 39.9627 26.1325 39.9627 27.0893C39.9627 28.1705 39.5414 29.1525 38.8554 29.8776C39.0529 30.3909 39.1613 30.9493 39.1613 31.5332C39.1613 32.9533 38.5201 34.2224 37.5137 35.0622C37.5285 35.1676 37.536 35.2743 37.5416 35.3819L37.5521 35.5986C37.554 35.6349 37.5561 35.6713 37.5586 35.7078C38.145 44.2615 18.7228 40.5515 15.6218 39.2822C15.46 39.216 15.3056 39.0582 15.1607 38.8239C14.7601 39.078 14.3005 39.2494 13.8038 39.3129L8.57445 39.9813C7.80695 40.0793 7.09555 39.5605 6.9477 38.7948C6.51931 36.5771 6.30511 34.242 6.30511 31.7895C6.30511 29.26 6.53296 26.7306 6.98864 24.2011C7.12128 23.4658 7.77645 22.9452 8.51657 22.9871L14.202 23.3101C14.5156 23.3279 14.814 23.3998 15.0887 23.5164C15.4339 22.7272 15.8521 22.003 16.3212 21.4704L17.0662 20.6241L17.2165 20.4523L17.4326 20.2033L17.5709 20.0425L17.7048 19.8853L17.8346 19.7311L17.9606 19.5795L18.083 19.4299C18.1031 19.4051 18.1231 19.3804 18.1429 19.3557L18.2605 19.2083C18.2798 19.1838 18.299 19.1593 18.3181 19.1349L18.4313 18.9885C19.1402 18.0619 19.6962 17.1385 20.3953 15.6466L20.5069 15.4062C20.5821 15.2427 20.6592 15.0725 20.7383 14.8951L20.8586 14.6233L20.9823 14.3402L21.1096 14.045L21.2409 13.7374L21.3764 13.4169L21.5164 13.0829L21.661 12.735L21.8106 12.3726L22.0449 11.8008L22.2081 11.4001L22.4639 10.7685L22.6422 10.3264C22.6699 10.2577 22.6771 10.1639 22.6725 10.0498L22.6696 9.99568L22.6652 9.9388L22.6562 9.84848L22.6365 9.6855L22.6038 9.43389L22.5852 9.27937L22.5725 9.15899L22.565 9.07679C22.5638 9.06296 22.5627 9.04908 22.5616 9.03514L22.5556 8.95083C22.5547 8.93667 22.5538 8.92245 22.553 8.90819L22.5489 8.822C22.525 8.20015 22.6191 7.49182 23.1436 6.86913C24.2414 5.56582 26.4586 5.90895 27.893 7.35518Z" stroke="white" stroke-width="1.44086"></path>
<path d="M15.0854 39.7153L15.1096 23.398" stroke="white" stroke-width="1.44086" stroke-linejoin="round"></path>
</svg>
