<svg width="48" height="48" viewBox="0 0 48 48" fill="none" xmlns="http://www.w3.org/2000/svg">
<path fill-rule="evenodd" clip-rule="evenodd" d="M19.7197 40.6451C18.8824 39.8009 18.4403 38.7449 18.435 37.7924C18.1868 36.8802 18.3975 35.395 18.7373 33.8775L18.7892 33.6497L18.8428 33.4218C18.8519 33.3838 18.861 33.3459 18.8701 33.3079L18.9258 33.0807L18.9825 32.8544L19.0401 32.6294L19.1274 32.2954L19.2444 31.8584L19.3315 31.5389L19.6566 30.3592L19.7279 30.0957L19.7935 29.8476L19.8337 29.6914C19.8402 29.666 19.8465 29.641 19.8527 29.6162L19.8881 29.4719C19.8993 29.4252 19.9099 29.3799 19.92 29.336L19.9481 29.209C20.0005 28.964 20.0288 28.7745 20.0242 28.6551C18.7108 28.9885 17.6142 29.1944 16.6941 29.3151L16.4848 29.3415L16.2818 29.365C16.015 29.3944 15.7644 29.4163 15.5288 29.4321L15.3548 29.4428C15.3263 29.4444 15.298 29.4459 15.2699 29.4473L15.1041 29.4548C15.0769 29.4558 15.05 29.4568 15.0232 29.4577L14.8654 29.4621C14.8136 29.4633 14.7627 29.4641 14.7127 29.4647L14.5651 29.4655L14.4224 29.4647C14.3756 29.4642 14.3297 29.4634 14.2845 29.4624L14.1513 29.4587C14.1295 29.458 14.1079 29.4572 14.0865 29.4564L13.9602 29.4508C13.9395 29.4498 13.9191 29.4487 13.8987 29.4476L13.7791 29.4404L13.6637 29.4323L13.5524 29.4234L13.3931 29.4087L13.2918 29.3983L13.1469 29.3819L12.9662 29.3593L12.7991 29.3368L12.4681 29.2908L12.3703 29.2784L12.2781 29.2681L12.2195 29.2625L12.1911 29.2602C9.98635 29.0915 8.18427 27.3168 8.18427 25.0856C8.18427 24.4991 8.30824 23.9418 8.53118 23.4388C7.97989 22.7468 7.65003 21.8677 7.65003 20.911C7.65003 19.8297 8.0713 18.8477 8.75738 18.1227C8.5598 17.6093 8.4514 17.0509 8.4514 16.467C8.4514 15.0469 9.0926 13.7779 10.099 12.938C10.0842 12.8326 10.0768 12.726 10.0711 12.6183L10.0606 12.4016C10.0587 12.3653 10.0566 12.3289 10.0541 12.2924C9.4677 3.7387 28.8899 7.44874 31.9909 8.718C32.1527 8.78423 32.3071 8.94204 32.4521 9.17636C32.8526 8.92222 33.3123 8.75082 33.8089 8.68734L39.0383 8.01898C39.8058 7.92093 40.5172 8.43978 40.665 9.20543C41.0934 11.4231 41.3076 13.7583 41.3076 16.2108C41.3076 18.7402 41.0798 21.2697 40.6241 23.7991C40.4915 24.5345 39.8363 25.055 39.0962 25.0131L33.4108 24.6901C33.0972 24.6723 32.7987 24.6005 32.5241 24.4838C32.1788 25.2731 31.7606 25.9972 31.2915 26.5298L30.5465 27.3761L30.3962 27.548L30.1801 27.7969L30.0419 27.9577L29.908 28.115L29.7781 28.2692L29.6522 28.4208L29.5298 28.5704C29.5096 28.5952 29.4897 28.6199 29.4698 28.6445L29.3523 28.792C29.3329 28.8165 29.3137 28.8409 29.2946 28.8654L29.1814 29.0118C28.4725 29.9384 27.9165 30.8617 27.2175 32.3537L27.1058 32.5941C27.0306 32.7576 26.9536 32.9277 26.8745 33.1052L26.7542 33.3769L26.6305 33.6601L26.5031 33.9552L26.3718 34.2628L26.2363 34.5833L26.0964 34.9173L25.9517 35.2653L25.8021 35.6276L25.5678 36.1994L25.4047 36.6001L25.1488 37.2317L24.9705 37.6739C24.9429 37.7426 24.9357 37.8363 24.9402 37.9505L24.9432 38.0046L24.9476 38.0614L24.9565 38.1518L24.9763 38.3147L25.0089 38.5664L25.0275 38.7209L25.0402 38.8413L25.0477 38.9235C25.0489 38.9373 25.0501 38.9512 25.0511 38.9651L25.0572 39.0494C25.0581 39.0636 25.0589 39.0778 25.0597 39.0921L25.0638 39.1782C25.0877 39.8001 24.9936 40.5084 24.4691 41.1311C23.3713 42.4344 21.1541 42.0913 19.7197 40.6451Z" stroke="white" stroke-width="1.44086"></path>
<path d="M32.5275 8.28467L32.5033 24.602" stroke="white" stroke-width="1.44086" stroke-linejoin="round"></path>
</svg>
